<svg class="diagram-root" style="background: #f5f6f6" xmlns="http://www.w3.org/2000/svg" xmlns:xlink="http://www.w3.org/1999/xlink"><style>.diagram-root { font-family: "Helvetica Neue", sans-serif; font-size: 12px; } .t { overflow: visible; } .t-bg { y: 40; fill: #fff;   } .th { fill: #005aa0;   } .tht { fill: #fff; font-size: 14px;  } .tf { fill: #323c46; overflow: visible; } .tf.pk { fill: #005aa0; font-weight: bold; } .tf.fk { font-weight: bold; } .ty { fill: #adb1b5; font-weight: normal; text-anchor: end; } .r { fill: transparent; stroke: #c3c3c3; stroke-width: 1; } .l { stroke: 1; } .i { fill: #c2c7ce; stroke: #c2c7ce; } .i.ix { fill: #afb3b6; stroke: #000; } .fa { fill: transparent; overflow: visible; } .fa .bg.hover { fill: #f7f7f7; } .c { cy: 12; r: 4; stroke: #d2d2dc; fill: #d2d2dc; } .hr { fill: transparent; stroke: #323c46; stroke-opacity: 0.035; stroke-width: 13; } .dc { stroke: #fa5a3c; fill: #fa5a3c; } .x { stroke: white; stroke-width: 1; } .hl .th { fill: #1b9bff; } .hl .tht {  } .fhl .bg { fill: #e7f4ff; } .fhls .bg {  } .r.hl { stroke: #1b9bff; } .dim { opacity: 0.25; }</style><g class="drawing-wrapper" transform="translate(-62.4500000000001, -29.991111111111074) scale(1,1)"><g class="rs"><path d="M 123.89 293.11 m -1, 0 a 1,1 0 1,0 2,0 a 1,1 0 1,0 -2,0 M 123.89 293.11 m -0.5, 0 a 0.5,0.5 0 1,0 1,0 a 0.5,0.5 0 1,0 -1,0  M123.89 293.11 L123.89 293.11 111.89 293.11 M 123.89 299.11 m -1, 0 a 1,1 0 1,0 2,0 a 1,1 0 1,0 -2,0 M 123.89 299.11 m -0.5, 0 a 0.5,0.5 0 1,0 1,0 a 0.5,0.5 0 1,0 -1,0  M123.89 299.11 L123.89 299.11 116.89 293.11 123.89 287.11 M 123.89 287.11 m -1, 0 a 1,1 0 1,0 2,0 a 1,1 0 1,0 -2,0 M 123.89 287.11 m -0.5, 0 a 0.5,0.5 0 1,0 1,0 a 0.5,0.5 0 1,0 -1,0  M111.89 293.11 C -1.2139999999999986 293.11, 22.450000000000003 135.89, 72.45 135.89 M 84.45 135.89 m -1, 0 a 1,1 0 1,0 2,0 a 1,1 0 1,0 -2,0 M 84.45 135.89 m -0.5, 0 a 0.5,0.5 0 1,0 1,0 a 0.5,0.5 0 1,0 -1,0  M84.45 135.89 L84.45 135.89 72.45 135.89 M78.45 141.89 L78.45 141.89 78.45 129.89" id="h1081751425" class="r"></path><path d="M 438.89 250.34 m -1, 0 a 1,1 0 1,0 2,0 a 1,1 0 1,0 -2,0 M 438.89 250.34 m -0.5, 0 a 0.5,0.5 0 1,0 1,0 a 0.5,0.5 0 1,0 -1,0  M438.89 250.34 L438.89 250.34 426.89 250.34 M 438.89 256.34000000000003 m -1, 0 a 1,1 0 1,0 2,0 a 1,1 0 1,0 -2,0 M 438.89 256.34000000000003 m -0.5, 0 a 0.5,0.5 0 1,0 1,0 a 0.5,0.5 0 1,0 -1,0  M438.89 256.34000000000003 L438.89 256.34000000000003 431.89 250.34 438.89 244.34 M 438.89 244.34 m -1, 0 a 1,1 0 1,0 2,0 a 1,1 0 1,0 -2,0 M 438.89 244.34 m -0.5, 0 a 0.5,0.5 0 1,0 1,0 a 0.5,0.5 0 1,0 -1,0  M426.89 250.34 C 240.89 250.34, 291.89 116.99000000000001, 341.89 116.99000000000001 M 353.89 116.99000000000001 m -1, 0 a 1,1 0 1,0 2,0 a 1,1 0 1,0 -2,0 M 353.89 116.99000000000001 m -0.5, 0 a 0.5,0.5 0 1,0 1,0 a 0.5,0.5 0 1,0 -1,0  M353.89 116.99000000000001 L353.89 116.99000000000001 341.89 116.99000000000001 M347.89 122.99000000000001 L347.89 122.99000000000001 347.89 110.99000000000001" id="h3252354677" class="r"></path><path d="M 438.89 275.34000000000003 m -1, 0 a 1,1 0 1,0 2,0 a 1,1 0 1,0 -2,0 M 438.89 275.34000000000003 m -0.5, 0 a 0.5,0.5 0 1,0 1,0 a 0.5,0.5 0 1,0 -1,0  M438.89 275.34000000000003 L438.89 275.34000000000003 426.89 275.34000000000003 M 438.89 281.34000000000003 m -1, 0 a 1,1 0 1,0 2,0 a 1,1 0 1,0 -2,0 M 438.89 281.34000000000003 m -0.5, 0 a 0.5,0.5 0 1,0 1,0 a 0.5,0.5 0 1,0 -1,0  M438.89 281.34000000000003 L438.89 281.34000000000003 431.89 275.34000000000003 438.89 269.34000000000003 M 438.89 269.34000000000003 m -1, 0 a 1,1 0 1,0 2,0 a 1,1 0 1,0 -2,0 M 438.89 269.34000000000003 m -0.5, 0 a 0.5,0.5 0 1,0 1,0 a 0.5,0.5 0 1,0 -1,0  M426.89 275.34000000000003 Q 383.65 275.34000000000003, 340.41 271.73 T 253.92 268.11 M 241.92 268.11 m -1, 0 a 1,1 0 1,0 2,0 a 1,1 0 1,0 -2,0 M 241.92 268.11 m -0.5, 0 a 0.5,0.5 0 1,0 1,0 a 0.5,0.5 0 1,0 -1,0  M241.92 268.11 L241.92 268.11 253.92 268.11 M247.92 274.11 L247.92 274.11 247.92 262.11" id="h4030363074" class="r"></path></g><g class="hrs"></g><g class="ts"><svg width="105.36" height="100" x="84.45" y="78.89" id="h1304670300" class="t"><rect height="40" width="105.36" class="th"></rect><text x="13" y="25" class="tht">Customer</text><rect height="60" width="105.36" class="t-bg"></rect><text x="13" y="61" class="tf pk">id<tspan x="92.36" class="ty">int</tspan></text><path d="M7,14A2,2 0 0,1 5,12A2,2 0 0,1 7,10A2,2 0 0,1 9,12A2,2 0 0,1 7,14M12.65,10C11.83,7.67 9.61,6 7, 6A6, 6 0 0, 0 1, 12A6, 6 0 0, 0 7, 18C9.61, 18 11.83, 16.33 12.65, 14H17V18H21V14H23V10H12.65Z" class="i pk" transform="translate(59.686171875, 48) scale(0.65)"></path><text x="13" y="86" class="tf">name<tspan x="92.36" class="ty">string</tspan></text></svg><svg width="118.03" height="125" x="123.89" y="211.11" id="h4176899315" class="t"><rect height="40" width="118.03" class="th"></rect><text x="13" y="25" class="tht">Order</text><rect height="85" width="118.03" class="t-bg"></rect><text x="13" y="61" class="tf pk">orderId<tspan x="105.03" class="ty">int</tspan></text><path d="M7,14A2,2 0 0,1 5,12A2,2 0 0,1 7,10A2,2 0 0,1 9,12A2,2 0 0,1 7,14M12.65,10C11.83,7.67 9.61,6 7, 6A6, 6 0 0, 0 1, 12A6, 6 0 0, 0 7, 18C9.61, 18 11.83, 16.33 12.65, 14H17V18H21V14H23V10H12.65Z" class="i pk" transform="translate(72.356171875, 48) scale(0.65)"></path><text x="13" y="86" class="tf fk">customerId<tspan x="105.03" class="ty">int</tspan></text><text x="13" y="111" class="tf">date<tspan x="105.03" class="ty">date</tspan></text></svg><svg width="108.71" height="125" x="438.89" y="193.34" id="h2589367854" class="t"><rect height="40" width="108.71" class="th"></rect><text x="13" y="25" class="tht">OrderDetail</text><rect height="85" width="108.71" class="t-bg"></rect><text x="13" y="61" class="tf fk">productId<tspan x="95.71" class="ty">int</tspan></text><text x="13" y="86" class="tf fk">orderId<tspan x="95.71" class="ty">int</tspan></text><text x="13" y="111" class="tf">amount<tspan x="95.71" class="ty">int</tspan></text></svg><svg width="108.71" height="100" x="353.89" y="59.99" id="h3119304962" class="t"><rect height="40" width="108.71" class="th"></rect><text x="13" y="25" class="tht">Product</text><rect height="60" width="108.71" class="t-bg"></rect><text x="13" y="61" class="tf fk">productId<tspan x="95.71" class="ty">int</tspan></text><text x="13" y="86" class="tf">name<tspan x="95.71" class="ty">string</tspan></text></svg></g></g></svg>